<?xml version="1.0" encoding="UTF-8" standalone="no"?>
<!DOCTYPE svg PUBLIC "-//W3C//DTD SVG 1.1//EN"
 "http://www.w3.org/Graphics/SVG/1.1/DTD/svg11.dtd">
<!-- Generated by graphviz version 2.47.0 (20210316.0004)
 -->
<!-- Title: dependencies Pages: 1 -->
<svg width="611pt" height="284pt"
 viewBox="0.00 0.00 611.00 284.00" xmlns="http://www.w3.org/2000/svg" xmlns:xlink="http://www.w3.org/1999/xlink">
<g id="graph0" class="graph" transform="scale(1 1) rotate(0) translate(4 280)">
<title>dependencies</title>
<polygon fill="white" stroke="transparent" points="-4,4 -4,-280 607,-280 607,4 -4,4"/>
<text text-anchor="start" x="280.51" y="-42.4" font-family="Times-12" font-weight="bold" font-size="14.00">Legend</text>
<polygon fill="#ffffb3" stroke="transparent" points="67.5,-10 67.5,-30 87.5,-30 87.5,-10 67.5,-10"/>
<text text-anchor="start" x="91.13" y="-15.4" font-family="Times-12" font-size="14.00"> &#160;Declarations</text>
<polygon fill="#8dd3c7" stroke="transparent" points="180.5,-10 180.5,-30 200.5,-30 200.5,-10 180.5,-10"/>
<text text-anchor="start" x="204.23" y="-15.4" font-family="Times-12" font-size="14.00"> &#160;Module</text>
<polygon fill="#80b1d3" stroke="transparent" points="266.5,-10 266.5,-30 286.5,-30 286.5,-10 266.5,-10"/>
<text text-anchor="start" x="290.28" y="-15.4" font-family="Times-12" font-size="14.00"> &#160;Bootstrap</text>
<polygon fill="#fdb462" stroke="transparent" points="363.5,-10 363.5,-30 383.5,-30 383.5,-10 363.5,-10"/>
<text text-anchor="start" x="387.17" y="-15.4" font-family="Times-12" font-size="14.00"> &#160;Providers</text>
<polygon fill="#fb8072" stroke="transparent" points="459.5,-10 459.5,-30 479.5,-30 479.5,-10 459.5,-10"/>
<text text-anchor="start" x="483.23" y="-15.4" font-family="Times-12" font-size="14.00"> &#160;Exports</text>
<g id="clust1" class="cluster">
<title>cluster_AppModule</title>
<polygon fill="none" stroke="black" stroke-dasharray="1,5" points="8,-70 8,-268 595,-268 595,-70 8,-70"/>
</g>
<g id="clust2" class="cluster">
<title>cluster_AppModule_declarations</title>
<polygon fill="none" stroke="black" points="168,-78 168,-130 587,-130 587,-78 168,-78"/>
</g>
<g id="clust6" class="cluster">
<title>cluster_AppModule_imports</title>
<polygon fill="none" stroke="black" points="16,-78 16,-130 160,-130 160,-78 16,-78"/>
</g>
<g id="clust8" class="cluster">
<title>cluster_AppModule_bootstrap</title>
<polygon fill="none" stroke="black" points="253,-208 253,-260 377,-260 377,-208 253,-208"/>
</g>
<!-- AppComponent -->
<g id="node1" class="node">
<title>AppComponent</title>
<polygon fill="#ffffb3" stroke="black" points="578.94,-122 473.06,-122 473.06,-86 578.94,-86 578.94,-122"/>
<text text-anchor="middle" x="526" y="-99.8" font-family="Times,serif" font-size="14.00">AppComponent</text>
</g>
<!-- AppModule -->
<g id="node4" class="node">
<title>AppModule</title>
<polygon fill="#8dd3c7" stroke="black" points="356.66,-187 353.66,-191 332.66,-191 329.66,-187 273.34,-187 273.34,-151 356.66,-151 356.66,-187"/>
<text text-anchor="middle" x="315" y="-164.8" font-family="Times,serif" font-size="14.00">AppModule</text>
</g>
<!-- AppComponent&#45;&gt;AppModule -->
<g id="edge1" class="edge">
<title>AppComponent&#45;&gt;AppModule</title>
<path fill="none" stroke="black" d="M526,-122.11C526,-141.34 526,-169 526,-169 526,-169 366.69,-169 366.69,-169"/>
<polygon fill="black" stroke="black" points="366.69,-165.5 356.69,-169 366.69,-172.5 366.69,-165.5"/>
</g>
<!-- ChatBoxComponent -->
<g id="node2" class="node">
<title>ChatBoxComponent</title>
<polygon fill="#ffffb3" stroke="black" points="455.61,-122 324.39,-122 324.39,-86 455.61,-86 455.61,-122"/>
<text text-anchor="middle" x="390" y="-99.8" font-family="Times,serif" font-size="14.00">ChatBoxComponent</text>
</g>
<!-- ChatBoxComponent&#45;&gt;AppModule -->
<g id="edge2" class="edge">
<title>ChatBoxComponent&#45;&gt;AppModule</title>
<path fill="none" stroke="black" d="M340.64,-122.11C340.64,-122.11 340.64,-140.99 340.64,-140.99"/>
<polygon fill="black" stroke="black" points="337.14,-140.99 340.64,-150.99 344.14,-140.99 337.14,-140.99"/>
</g>
<!-- MessageComponent -->
<g id="node3" class="node">
<title>MessageComponent</title>
<polygon fill="#ffffb3" stroke="black" points="306.31,-122 175.69,-122 175.69,-86 306.31,-86 306.31,-122"/>
<text text-anchor="middle" x="241" y="-99.8" font-family="Times,serif" font-size="14.00">MessageComponent</text>
</g>
<!-- MessageComponent&#45;&gt;AppModule -->
<g id="edge3" class="edge">
<title>MessageComponent&#45;&gt;AppModule</title>
<path fill="none" stroke="black" d="M289.66,-122.11C289.66,-122.11 289.66,-140.99 289.66,-140.99"/>
<polygon fill="black" stroke="black" points="286.16,-140.99 289.66,-150.99 293.16,-140.99 286.16,-140.99"/>
</g>
<!-- AppComponent  -->
<g id="node6" class="node">
<title>AppComponent </title>
<polygon fill="#80b1d3" stroke="black" points="369.44,-252 260.56,-252 260.56,-216 369.44,-216 369.44,-252"/>
<text text-anchor="middle" x="315" y="-229.8" font-family="Times,serif" font-size="14.00">AppComponent </text>
</g>
<!-- AppModule&#45;&gt;AppComponent  -->
<g id="edge5" class="edge">
<title>AppModule&#45;&gt;AppComponent </title>
<path fill="none" stroke="black" stroke-dasharray="1,5" d="M315,-187.11C315,-187.11 315,-205.99 315,-205.99"/>
<polygon fill="black" stroke="black" points="311.5,-205.99 315,-215.99 318.5,-205.99 311.5,-205.99"/>
</g>
<!-- AppRoutingModule -->
<g id="node5" class="node">
<title>AppRoutingModule</title>
<polygon fill="#8dd3c7" stroke="black" points="152.27,-122 149.27,-126 128.27,-126 125.27,-122 23.73,-122 23.73,-86 152.27,-86 152.27,-122"/>
<text text-anchor="middle" x="88" y="-99.8" font-family="Times,serif" font-size="14.00">AppRoutingModule</text>
</g>
<!-- AppRoutingModule&#45;&gt;AppModule -->
<g id="edge4" class="edge">
<title>AppRoutingModule&#45;&gt;AppModule</title>
<path fill="none" stroke="black" d="M88,-122.11C88,-141.34 88,-169 88,-169 88,-169 263.1,-169 263.1,-169"/>
<polygon fill="black" stroke="black" points="263.1,-172.5 273.1,-169 263.1,-165.5 263.1,-172.5"/>
</g>
</g>
</svg>
